<svg width="185" height="43" viewBox="0 0 185 43" fill="none" xmlns="http://www.w3.org/2000/svg">
<path fill-rule="evenodd" clip-rule="evenodd" d="M16.4387 29.4919C15.051 29.4919 13.7201 28.9406 12.7388 27.9594C11.7575 26.9781 11.2062 25.6472 11.2062 24.2594V0.190178H0.741333V24.2594C0.741333 32.9286 7.76956 39.9568 16.4387 39.9568H27.9501V29.4919H16.4387ZM47.8334 10.6551C46.5965 10.6551 45.3718 10.8987 44.2291 11.372C43.0864 11.8453 42.0481 12.5391 41.1736 13.4137C40.299 14.2882 39.6052 15.3265 39.1319 16.4692C38.6586 17.6119 38.415 18.8366 38.415 20.0735C38.415 21.3103 38.6586 22.5351 39.1319 23.6778C39.6052 24.8205 40.299 25.8587 41.1736 26.7333C42.0481 27.6079 43.0864 28.3016 44.2291 28.775C45.3718 29.2483 46.5965 29.4919 47.8334 29.4919C50.3313 29.4919 52.7269 28.4996 54.4932 26.7333C56.2595 24.967 57.2518 22.5714 57.2518 20.0735C57.2518 17.5756 56.2595 15.18 54.4932 13.4137C52.7269 11.6474 50.3313 10.6551 47.8334 10.6551ZM27.9501 20.0735C27.9501 9.09267 36.8526 0.190178 47.8334 0.190178C58.8142 0.190178 67.7167 9.09267 67.7167 20.0735C67.7167 31.0543 58.8142 39.9568 47.8334 39.9568C36.8526 39.9568 27.9501 31.0543 27.9501 20.0735ZM160.854 10.6551C158.356 10.6551 155.961 11.6474 154.194 13.4137C152.428 15.18 151.436 17.5756 151.436 20.0735C151.436 22.5714 152.428 24.967 154.194 26.7333C155.961 28.4996 158.356 29.4919 160.854 29.4919C163.352 29.4919 165.748 28.4996 167.514 26.7333C169.28 24.967 170.273 22.5714 170.273 20.0735C170.273 17.5756 169.28 15.18 167.514 13.4137C165.748 11.6474 163.352 10.6551 160.854 10.6551ZM140.971 20.0735C140.971 9.09267 149.873 0.190178 160.854 0.190178C171.835 0.190178 180.738 9.09267 180.738 20.0735C180.738 31.0543 171.835 39.9568 160.854 39.9568C149.873 39.9568 140.971 31.0543 140.971 20.0735ZM89.693 0.190178C78.7122 0.190178 69.8097 9.09267 69.8097 20.0735C69.8097 31.0543 78.7122 39.9568 89.693 39.9568H118.995C121.055 39.9568 123.043 39.6429 124.912 39.061L130.506 42.0498L136.542 30.7435C138.076 27.8653 138.878 24.6543 138.878 21.3931V20.0735C138.878 9.09267 129.976 0.190178 118.995 0.190178H89.693ZM128.413 20.0735C128.413 17.5756 127.421 15.18 125.655 13.4137C123.888 11.6474 121.493 10.6551 118.995 10.6551H89.693C88.4561 10.6551 87.2314 10.8987 86.0887 11.372C84.946 11.8453 83.9077 12.5391 83.0332 13.4137C82.1586 14.2882 81.4648 15.3265 80.9915 16.4692C80.5182 17.6119 80.2746 18.8366 80.2746 20.0735C80.2746 21.3103 80.5182 22.5351 80.9915 23.6778C81.4648 24.8205 82.1586 25.8587 83.0332 26.7333C83.9077 27.6079 84.946 28.3016 86.0887 28.775C87.2314 29.2483 88.4561 29.4919 89.693 29.4919H118.995C121.48 29.492 123.865 28.5097 125.629 26.7593C127.393 25.0088 128.394 22.6319 128.413 20.1467V20.0735Z" fill="#02005F"/>
<path d="M184.924 2.8064C184.924 3.50027 184.648 4.16572 184.157 4.65635C183.667 5.14699 183.001 5.42263 182.307 5.42263C181.614 5.42263 180.948 5.14699 180.457 4.65635C179.967 4.16572 179.691 3.50027 179.691 2.8064C179.691 2.11254 179.967 1.44709 180.457 0.956453C180.948 0.465815 181.614 0.190178 182.307 0.190178C183.001 0.190178 183.667 0.465815 184.157 0.956453C184.648 1.44709 184.924 2.11254 184.924 2.8064Z" fill="#02005F"/>
</svg>
